<?xml version="1.0" standalone="no"?>
<!DOCTYPE svg PUBLIC "-//W3C//DTD SVG 20010904//EN"
 "http://www.w3.org/TR/2001/REC-SVG-20010904/DTD/svg10.dtd">
<svg version="1.0" xmlns="http://www.w3.org/2000/svg"
 width="800.000000pt" height="800.000000pt" viewBox="0 0 800.000000 800.000000"
 preserveAspectRatio="xMidYMid meet">
<metadata>
Created by potrace 1.11, written by Peter Selinger 2001-2013
</metadata>
<g transform="translate(0.000000,800.000000) scale(0.100000,-0.100000)"
fill="#000000" stroke="none">
<path d="M2595 7847 c-60 -21 -117 -40 -125 -42 -8 -2 -76 -25 -150 -50 -74
-26 -299 -103 -500 -172 -201 -68 -430 -147 -510 -174 -121 -42 -191 -65 -275
-93 -5 -2 -14 -4 -20 -6 -5 -1 -18 -6 -28 -12 -10 -5 -26 -11 -35 -13 -18 -4
-627 -211 -652 -222 -8 -3 -23 -8 -33 -10 -53 -10 -104 -51 -135 -108 -15 -27
-16 -307 -17 -3340 -1 -3609 -5 -3357 52 -3429 25 -31 118 -65 163 -60 15 2
139 47 276 99 137 53 276 107 309 120 33 12 121 46 195 75 74 28 162 62 195
75 33 13 130 50 215 83 85 33 182 70 215 82 33 12 74 28 90 35 17 8 68 28 115
45 47 18 99 38 115 45 17 6 46 18 65 25 19 7 49 18 65 25 17 7 67 26 112 44
46 17 120 45 165 62 46 18 97 37 113 44 108 45 132 51 150 44 22 -9 265 -95
445 -157 63 -22 205 -72 315 -112 110 -39 209 -73 220 -75 11 -3 29 -9 40 -14
11 -5 49 -20 85 -32 36 -12 164 -57 285 -99 121 -43 254 -89 295 -103 41 -14
93 -32 115 -40 45 -18 136 -50 485 -172 135 -47 254 -89 264 -94 17 -6 39 -2
114 24 7 2 13 4 15 4 1 0 16 5 32 11 28 11 559 195 650 225 22 7 146 49 275
93 222 76 360 123 750 257 91 31 172 58 180 60 8 2 49 16 90 31 41 15 147 51
234 81 187 63 213 78 246 135 l25 43 0 3308 c1 3634 5 3370 -58 3437 -16 16
-47 35 -70 41 -86 24 -79 25 -492 -136 -60 -24 -218 -85 -350 -135 -500 -193
-602 -232 -685 -265 -47 -18 -123 -47 -170 -65 -47 -17 -98 -37 -115 -44 -16
-7 -46 -19 -65 -26 -19 -6 -44 -16 -55 -21 -11 -5 -135 -53 -276 -107 -177
-68 -262 -96 -275 -91 -10 4 -59 22 -109 39 -49 17 -99 35 -110 40 -11 5 -54
20 -95 34 -68 22 -285 98 -510 178 -47 17 -173 61 -280 98 -107 38 -240 84
-295 104 -55 20 -107 38 -115 41 -8 2 -73 25 -145 50 -71 26 -134 48 -140 49
-5 2 -17 6 -25 9 -8 4 -94 34 -190 68 -361 126 -397 138 -475 166 l-80 29
-110 -39z m309 -902 c83 -29 205 -72 271 -95 66 -23 156 -54 200 -70 44 -16
166 -59 270 -95 105 -36 206 -72 225 -80 41 -16 638 -225 660 -230 8 -2 51
-17 95 -34 44 -16 172 -62 285 -101 113 -39 245 -86 295 -104 l90 -33 0 -2556
c0 -1407 -2 -2557 -5 -2557 -10 0 -67 19 -195 65 -71 26 -150 53 -175 61 -25
8 -54 19 -65 24 -11 5 -40 16 -65 24 -25 8 -137 47 -250 86 -113 40 -241 85
-285 100 -44 15 -204 71 -355 125 -151 53 -327 115 -390 137 -63 22 -124 44
-135 48 -11 5 -40 16 -65 24 -53 17 -352 122 -460 161 -41 15 -90 31 -107 36
-18 6 -34 13 -34 17 -1 4 -2 1156 -3 2560 l-1 2553 24 -6 c13 -3 92 -30 175
-60z"/>
</g>
</svg>
